# xmcd
#
# Track frame offsets:
#	150
#	17817
#	35010
#	49604
#	63855
#	83809
#	100951
#	117445
#	136059
#	150570
#	170136
#	190241
#
# Disc length: 2719 seconds
#
# Revision: 0
# Processed by: cddbd v1.5.1PL0 Copyright (c) Steve Scherf et al.
# Submitted via: dBpowerAMP V4.0
#
DISCID=9b0a9d0c
DTITLE=Rascal Flatts - Feels Like Today
DYEAR=2004
DGENRE=Country
TTITLE0=Where You Are
TTITLE1=Bless The Broken Road
TTITLE2=Then I Did
TTITLE3=Feels like Today
TTITLE4=Freedom and Fast Cars
TTITLE5=When the Sand Runs Out
TTITLE6=Here's to You
TTITLE7=The Day Before You
TTITLE8=Break Away
TTITLE9=Holes
TTITLE10=Oklahoma - Texas Line
TTITLE11=Skin
EXTD=
EXTT0=
EXTT1=
EXTT2=
EXTT3=
EXTT4=
EXTT5=
EXTT6=
EXTT7=
EXTT8=
EXTT9=
EXTT10=
EXTT11=
PLAYORDER=
